#!OML:ASF H:\Not Pregnant\Project 1\Capture day 1\Session 1\non-pregnant.ASF
:FULLY-SPECIFIED
:DEGREES
812
root -5.56629 16.8675 -23.0594 190.268 -72.0571 -174.508
lowerback -6.32949 2.88045 1.24469
upperback -9.32621 3.32675 -0.406067
thorax -6.08153 1.3594 -1.06194
lowerneck 15.3005 -8.82989 -30.2207
upperneck -5.36445 -18.1435 39.4951
head 3.10186 -11.1616 19.4524
rclavicle -1.48467e-014 -2.18663e-015
rhumerus -41.1766 -17.971 -71.6345
rradius 28.6571
rwrist 28.3808
rhand -7.65539 3.58023
rfingers 7.12502
rthumb 18.2404 -25.5845
lclavicle -1.48467e-014 -2.18663e-015
lhumerus -46.2509 -2.9857 82.4699
lradius 34.4968
lwrist 34.8808
lhand -10.6624 -12.3551
lfingers 7.12502
lthumb 15.3457 17.0554
rfemur -20.5153 8.40808 -6.48098
rtibia 10.5977
rfoot -2.59627 2.00454
rtoes -43.7865
lfemur -21.7296 3.63918 -15.6765
ltibia 25.7074
lfoot -19.7355 0.922572
ltoes -15.5167
813
root -5.56718 16.8602 -23.1776 190.011 -72.7031 -174.305
lowerback -6.38552 2.70876 1.03018
upperback -9.3049 3.10605 -0.343346
thorax -6.04735 1.26707 -0.877523
lowerneck 15.3625 -8.851 -30.2184
upperneck -5.39846 -18.1813 39.4972
head 3.09688 -11.1857 19.45
rclavicle 3.19298e-015 1.81888e-014
rhumerus -41.4353 -18.1444 -71.6494
rradius 28.6043
rwrist 28.4472
rhand -7.62833 3.60529
rfingers 7.12502
rthumb 18.2664 -25.557
lclavicle 3.19298e-015 1.81888e-014
lhumerus -46.1387 -3.0888 82.2904
lradius 34.5251
lwrist 34.877
lhand -10.785 -12.3852
lfingers 7.12502
lthumb 15.2276 17.0344
rfemur -20.5476 8.49455 -6.1264
rtibia 10.5552
rfoot -1.19879 3.49434
rtoes -42.875
lfemur -21.5778 3.24913 -15.1138
ltibia 25.6133
lfoot -19.7727 0.907204
ltoes -16.0919
814
root -5.56668 16.8512 -23.2985 189.734 -73.337 -174.108
lowerback -6.40737 2.53785 0.784082
upperback -9.27895 2.88871 -0.285687
thorax -6.02681 1.17849 -0.682257
lowerneck 15.42 -8.86857 -30.2044
upperneck -5.43209 -18.2134 39.5128
head 3.09126 -11.2084 19.454
rclavicle -2.36057e-014 -2.78299e-014
rhumerus -41.6959 -18.315 -71.6893
rradius 28.565
rwrist 28.4516
rhand -7.64574 3.60502
rfingers 7.12502
rthumb 18.2497 -25.5589
lclavicle -2.36057e-014 -2.78299e-014
lhumerus -46.0325 -3.20992 82.1106
lradius 34.5876
lwrist 34.9224
lhand -10.9444 -12.4135
lfingers 7.12502
lthumb 15.074 17.0177
rfemur -20.5733 8.15548 -5.54485
rtibia 10.7564
rfoot -0.0748089 4.9723
rtoes -41.6885
lfemur -21.4156 2.87967 -14.5492
ltibia 25.5322
lfoot -19.8141 0.900436
ltoes -16.7045
815
root -5.56541 16.8397 -23.4213 189.477 -73.9633 -173.967
lowerback -6.39372 2.37309 0.51551
upperback -9.24121 2.68171 -0.243963
thorax -6.01169 1.09655 -0.492045
lowerneck 15.4926 -8.88867 -30.1716
upperneck -5.49214 -18.2446 39.5407
head 3.07535 -11.2337 19.4625
rclavicle -5.60449e-014 -1.81888e-014
rhumerus -41.9515 -18.4761 -71.7581
rradius 28.5422
rwrist 28.3779
rhand -7.70115 3.56865
rfingers 7.12502
rthumb 18.1964 -25.6002
lclavicle -5.60449e-014 -1.81888e-014
lhumerus -45.9204 -3.34112 81.914
lradius 34.6688
lwrist 34.9485
lhand -11.0916 -12.4414
lfingers 7.12502
lthumb 14.9323 17.0003
rfemur -20.5684 7.40047 -4.77712
rtibia 11.2122
rfoot 0.538422 6.3121
rtoes -40.4633
lfemur -21.2385 2.46063 -13.9989
ltibia 25.4759
lfoot -19.8481 0.976993
ltoes -17.3892
816
root -5.56252 16.8257 -23.5465 189.263 -74.5774 -173.888
lowerback -6.3555 2.21125 0.209153
upperback -9.19526 2.48035 -0.210715
thorax -6.00093 1.01986 -0.290096
lowerneck 15.567 -8.90826 -30.139
upperneck -5.57083 -18.2729 39.5842
head 3.05557 -11.2594 19.4805
rclavicle 1.21756e-015 -2.08724e-014
rhumerus -42.192 -18.623 -71.8567
rradius 28.5327
rwrist 28.2542
rhand -7.72395 3.51247
rfingers 7.12502
rthumb 18.1744 -25.6584
lclavicle 1.21756e-015 -2.08724e-014
lhumerus -45.8038 -3.46585 81.7025
lradius 34.776
lwrist 34.9682
lhand -11.2376 -12.4748
lfingers 7.12502
lthumb 14.7916 16.9773
rfemur -20.5532 6.29665 -3.85982
rtibia 11.9333
rfoot 0.44582 7.42992
rtoes -39.4156
lfemur -21.0722 2.04623 -13.4649
ltibia 25.4497
lfoot -19.8795 1.0935
ltoes -18.1544
817
root -5.55812 16.8093 -23.6735 189.131 -75.1809 -173.914
lowerback -6.28835 2.04612 -0.134097
upperback -9.13833 2.27633 -0.184271
thorax -5.99396 0.944316 -0.0751697
lowerneck 15.6254 -8.9224 -30.1306
upperneck -5.65331 -18.2952 39.6472
head 3.04143 -11.2825 19.5146
rclavicle 8.87077e-015 -1.55052e-014
rhumerus -42.4027 -18.731 -71.9956
rradius 28.5311
rwrist 28.0939
rhand -7.70752 3.43795
rfingers 7.12502
rthumb 18.1902 -25.7315
lclavicle 8.87077e-015 -1.55052e-014
lhumerus -45.6864 -3.57191 81.4827
lradius 34.9142
lwrist 35.0287
lhand -11.3817 -12.5187
lfingers 7.12502
lthumb 14.6528 16.9436
rfemur -20.5376 4.91342 -2.85468
rtibia 12.9039
rfoot -0.361091 8.29985
rtoes -38.8411
lfemur -20.9108 1.62403 -12.9571
ltibia 25.4508
lfoot -19.9042 1.25058
ltoes -18.9588
818
root -5.55247 16.791 -23.8021 189.072 -75.7756 -174.033
lowerback -6.19631 1.88406 -0.503944
upperback -9.07068 2.07716 -0.172854
thorax -5.98783 0.872646 0.138834
lowerneck 15.6835 -8.93583 -30.109
upperneck -5.75159 -18.3108 39.7207
head 3.02075 -11.3039 19.5533
rclavicle -2.92462e-014 7.15625e-015
rhumerus -42.5923 -18.8194 -72.1748
rradius 28.5347
rwrist 27.9115
rhand -7.65106 3.36497
rfingers 7.12502
rthumb 18.2446 -25.7994
lclavicle -2.92462e-014 7.15625e-015
lhumerus -45.5632 -3.67762 81.2533
lradius 35.0818
lwrist 35.1346
lhand -11.5553 -12.5697
lfingers 7.12502
lthumb 14.4855 16.9047
rfemur -20.5435 3.46068 -1.84446
rtibia 14.0793
rfoot -1.69611 8.8338
rtoes -38.6212
lfemur -20.7442 1.1833 -12.4681
ltibia 25.4594
lfoot -19.9134 1.42011
ltoes -19.6973
819
root -5.54574 16.7717 -23.9318 189.114 -76.366 -174.272
lowerback -6.08079 1.71952 -0.902071
upperback -8.99108 1.87547 -0.16662
thorax -5.98085 0.80154 0.363239
lowerneck 15.727 -8.94509 -30.1076
upperneck -5.85711 -18.3193 39.8063
head 3.00252 -11.3213 19.6033
rclavicle 3.45388e-015 9.54166e-015
rhumerus -42.7427 -18.8573 -72.3949
rradius 28.5322
rwrist 27.7139
rhand -7.59928 3.28791
rfingers 7.12502
rthumb 18.2944 -25.8718
lclavicle 3.45388e-015 9.54166e-015
lhumerus -45.4264 -3.7324 81.0073
lradius 35.2582
lwrist 35.2368
lhand -11.72 -12.6401
lfingers 7.12502
lthumb 14.3269 16.8455
rfemur -20.5744 2.15515 -0.908681
rtibia 15.375
rfoot -3.31629 8.97705
rtoes -38.6366
lfemur -20.5621 0.72979 -12.0059
ltibia 25.4439
lfoot -19.8923 1.59088
ltoes -20.3846
820
root -5.53833 16.7535 -24.0618 189.249 -76.955 -174.625
lowerback -5.92969 1.55436 -1.31331
upperback -8.90697 1.67198 -0.176575
thorax -5.9868 0.72981 0.577917
lowerneck 15.7773 -8.94791 -30.0922
upperneck -5.97151 -18.3157 39.8974
head 2.97499 -11.3344 19.6577
rclavicle -8.44835e-016 2.20651e-014
rhumerus -42.8689 -18.848 -72.664
rradius 28.514
rwrist 27.514
rhand -7.59098 3.21441
rfingers 7.12502
rthumb 18.3024 -25.9446
lclavicle -8.44835e-016 2.20651e-014
lhumerus -45.2927 -3.77315 80.7418
lradius 35.4497
lwrist 35.3561
lhand -11.8811 -12.729
lfingers 7.12502
lthumb 14.1715 16.7676
rfemur -20.6125 1.06255 -0.0634902
rtibia 16.688
rfoot -4.92496 8.80698
rtoes -38.7189
lfemur -20.3411 0.264277 -11.5694
ltibia 25.3713
lfoot -19.8311 1.74661
ltoes -21.0016
821
root -5.53062 16.7379 -24.1915 189.432 -77.5395 -175.049
lowerback -5.74113 1.38942 -1.72199
upperback -8.81681 1.46758 -0.189985
thorax -6.00503 0.657475 0.787628
lowerneck 15.8213 -8.94436 -30.0881
upperneck -6.08604 -18.3031 39.9921
head 2.94695 -11.3427 19.7183
rclavicle 2.25372e-014 9.93923e-016
rhumerus -42.9535 -18.7459 -72.9895
rradius 28.4751
rwrist 27.2749
rhand -7.71421 3.11389
rfingers 7.12502
rthumb 18.1838 -26.0562
lclavicle 2.25372e-014 9.93923e-016
lhumerus -45.1629 -3.78993 80.4705
lradius 35.6534
lwrist 35.4961
lhand -12.0507 -12.8308
lfingers 7.12502
lthumb 14.0081 16.6772
rfemur -20.6339 0.200011 0.696071
rtibia 17.9274
rfoot -6.38465 8.49797
rtoes -38.4952
lfemur -20.0641 -0.209989 -11.1468
ltibia 25.214
lfoot -19.7207 1.87351
ltoes -21.5102
822
root -5.5228 16.7257 -24.3201 189.57 -78.12 -175.445
lowerback -5.51229 1.22528 -2.09978
upperback -8.72637 1.26179 -0.201647
thorax -6.04262 0.582713 0.982143
lowerneck 15.8628 -8.93203 -30.0834
upperneck -6.19352 -18.277 40.0804
head 2.91461 -11.3435 19.7788
rclavicle -1.53313e-014 8.94531e-015
rhumerus -43.0108 -18.5697 -73.3596
rradius 28.4164
rwrist 27.023
rhand -7.98244 2.99756
rfingers 7.12502
rthumb 17.9257 -26.1963
lclavicle -1.53313e-014 8.94531e-015
lhumerus -45.049 -3.78375 80.1937
lradius 35.8671
lwrist 35.6605
lhand -12.2242 -12.9428
lfingers 7.12502
lthumb 13.8409 16.5767
rfemur -20.5998 -0.449636 1.3989
rtibia 19.0271
rfoot -7.73117 8.04111
rtoes -38.1297
lfemur -19.7299 -0.68085 -10.7177
ltibia 24.9687
lfoot -19.566 1.95779
ltoes -21.9089
823
root -5.515 16.7171 -24.4469 189.47 -78.6955 -175.618
lowerback -5.24038 1.07306 -2.39065
upperback -8.63797 1.06841 -0.210638
thorax -6.1028 0.509166 1.13135
lowerneck 15.9058 -8.91574 -30.0763
upperneck -6.29423 -18.2468 40.1675
head 2.88154 -11.3424 19.8398
rclavicle -6.83322e-015 -1.35174e-014
rhumerus -43.0434 -18.3183 -73.7768
rradius 28.3374
rwrist 26.7202
rhand -8.33913 2.89081
rfingers 7.12502
rthumb 17.5825 -26.3341
lclavicle -6.83322e-015 -1.35174e-014
lhumerus -44.9492 -3.77161 79.911
lradius 36.0794
lwrist 35.8221
lhand -12.3794 -13.0723
lfingers 7.12502
lthumb 13.6913 16.4573
rfemur -20.4877 -0.920375 2.08852
rtibia 19.9522
rfoot -8.92569 7.47342
rtoes -37.7993
lfemur -19.3497 -1.14493 -10.243
ltibia 24.6607
lfoot -19.3776 2.01312
ltoes -22.2418
824
root -5.50702 16.7106 -24.5715 188.903 -79.2648 -175.322
lowerback -4.93989 0.937089 -2.55388
upperback -8.55497 0.893614 -0.207005
thorax -6.18118 0.437711 1.22319
lowerneck 15.9481 -8.8971 -30.0658
upperneck -6.38446 -18.215 40.2524
head 2.84984 -11.3404 19.8996
rclavicle -5.19325e-015 1.59028e-015
rhumerus -43.0591 -18.0025 -74.2343
rradius 28.2494
rwrist 26.369
rhand -8.77031 2.82722
rfingers 7.12502
rthumb 17.1675 -26.4344
lclavicle -5.19325e-015 1.59028e-015
lhumerus -44.872 -3.77657 79.6423
lradius 36.3069
lwrist 36.009
lhand -12.5571 -13.2011
lfingers 7.12502
lthumb 13.5201 16.34
rfemur -20.297 -1.24971 2.814
rtibia 20.6991
rfoot -9.96976 6.88208
rtoes -37.505
lfemur -18.9615 -1.58736 -9.67862
ltibia 24.3382
lfoot -19.1793 2.04028
ltoes -22.5346
825
root -5.49885 16.7048 -24.6933 187.67 -79.8167 -174.345
lowerback -4.62592 0.817735 -2.55662
upperback -8.48007 0.739414 -0.178019
thorax -6.27269 0.367631 1.25272
lowerneck 15.9723 -8.8751 -30.0808
upperneck -6.45076 -18.1847 40.3354
head 2.83117 -11.3368 19.9621
rclavicle -1.31446e-014 7.15625e-015
rhumerus -43.0511 -17.6043 -74.7253
rradius 28.1646
rwrist 25.9715
rhand -9.24648 2.82127
rfingers 7.12502
rthumb 16.7092 -26.4796
lclavicle -1.31446e-014 7.15625e-015
lhumerus -44.8123 -3.74489 79.3822
lradius 36.5342
lwrist 36.2002
lhand -12.74 -13.3307
lfingers 7.12502
lthumb 13.3438 16.2221
rfemur -20.0489 -1.50889 3.61253
rtibia 21.2824
rfoot -10.8894 6.35767
rtoes -37.3183
lfemur -18.6043 -2.00188 -8.99897
ltibia 24.0542
lfoot -18.9901 2.06827
ltoes -22.8521
826
root -5.49057 16.6989 -24.8119 185.58 -80.3383 -172.478
lowerback -4.32335 0.727838 -2.37157
upperback -8.4187 0.6238 -0.138243
thorax -6.37012 0.305232 1.18931
lowerneck 16.0019 -8.8566 -30.0779
upperneck -6.50808 -18.1604 40.4167
head 2.81378 -11.3371 20.0191
rclavicle -8.05078e-015 0
rhumerus -43.046 -17.1668 -75.2478
rradius 28.104
rwrist 25.5526
rhand -9.72362 2.88247
rfingers 7.12502
rthumb 16.2498 -26.4566
lclavicle -8.05078e-015 0
lhumerus -44.7681 -3.73799 79.1353
lradius 36.7744
lwrist 36.4185
lhand -12.9549 -13.4386
lfingers 7.12502
lthumb 13.1366 16.1276
rfemur -19.7817 -1.74721 4.50548
rtibia 21.7296
rfoot -11.6889 5.97992
rtoes -37.1484
lfemur -18.3174 -2.37543 -8.18467
ltibia 23.8531
lfoot -18.8298 2.10442
ltoes -23.226
